<?xml version="1.0"?>
<svg width="20" height="30" xmlns="http://www.w3.org/2000/svg" xmlns:svg="http://www.w3.org/2000/svg">
 <!-- Created with SVG-edit - https://github.com/SVG-Edit/svgedit-->
 <g class="layer">
  <title>Layer 1</title>
  <line fill="none" id="svg_2" stroke="#000000" x1="4.15722" x2="4.015577" y1="5.7932" y2="26.756373"/>
  <line fill="none" id="svg_7" stroke="#000000" stroke-dasharray="null" stroke-linecap="null" stroke-linejoin="null" x1="4.015577" x2="16.480167" y1="5.368271" y2="5.368271"/>
  <line fill="none" id="svg_8" stroke="#000000" stroke-dasharray="null" stroke-linecap="null" stroke-linejoin="null" x1="16.338524" x2="16.62181" y1="26.331444" y2="5.651557"/>
  <line fill="none" id="svg_9" stroke="#000000" stroke-dasharray="null" stroke-linecap="null" stroke-linejoin="null" x1="4.298863" x2="16.055238" y1="26.473087" y2="26.756373"/>
  <line fill="none" id="svg_10" stroke="#000000" stroke-dasharray="null" stroke-linecap="null" stroke-linejoin="null" x1="6.423509" x2="6.140223" y1="8.626061" y2="13.866854"/>
  <line fill="none" id="svg_11" stroke="#000000" stroke-dasharray="null" stroke-linecap="null" stroke-linejoin="null" transform="rotate(88.763 7.90368 9.16431)" x1="8.019327" x2="7.788023" y1="7.747595" y2="10.581018"/>
  <line fill="none" id="svg_13" stroke="#000000" stroke-dasharray="null" stroke-linecap="null" stroke-linejoin="null" x1="6.274782" x2="5.991496" y1="18.866856" y2="24.10765"/>
  <line fill="none" id="svg_14" stroke="#000000" stroke-dasharray="null" stroke-linecap="null" stroke-linejoin="null" x1="9.107645" x2="8.824359" y1="8.951842" y2="14.192635"/>
  <line fill="none" id="svg_15" stroke="#000000" stroke-dasharray="null" stroke-linecap="null" stroke-linejoin="null" x1="8.824358" x2="8.541072" y1="18.725213" y2="23.966006"/>
  <line fill="none" id="svg_16" stroke="#000000" stroke-dasharray="null" stroke-linecap="null" stroke-linejoin="null" x1="11.940508" x2="11.657222" y1="8.951842" y2="14.192635"/>
  <line fill="none" id="svg_17" stroke="#000000" stroke-dasharray="null" stroke-linecap="null" stroke-linejoin="null" x1="14.91501" x2="14.631724" y1="8.668555" y2="13.909348"/>
  <line fill="none" id="svg_18" stroke="#000000" stroke-dasharray="null" stroke-linecap="null" stroke-linejoin="null" x1="11.515573" x2="11.232287" y1="18.016997" y2="23.25779"/>
  <line fill="none" id="svg_19" stroke="#000000" stroke-dasharray="null" stroke-linecap="null" stroke-linejoin="null" x1="14.490084" x2="14.206797" y1="18.583569" y2="23.824363"/>
  <line fill="none" id="svg_21" stroke="#000000" stroke-dasharray="null" stroke-linecap="null" stroke-linejoin="null" transform="rotate(88.763 7.40792 13.6969)" x1="7.523578" x2="7.292273" y1="12.280173" y2="15.113596"/>
  <line fill="none" id="svg_22" stroke="#000000" stroke-dasharray="null" stroke-linecap="null" stroke-linejoin="null" transform="rotate(88.763 13.2153 9.02266)" x1="13.330942" x2="13.099638" y1="7.605952" y2="10.439374"/>
  <line fill="none" id="svg_23" stroke="#000000" stroke-dasharray="null" stroke-linecap="null" stroke-linejoin="null" transform="rotate(88.763 12.932 13.6969)" x1="13.047655" x2="12.816351" y1="12.280173" y2="15.113595"/>
  <line fill="none" id="svg_24" stroke="#000000" stroke-dasharray="null" stroke-linecap="null" stroke-linejoin="null" transform="rotate(88.763 6.983 23.7535)" x1="7.09865" x2="6.867346" y1="22.336831" y2="25.170253"/>
  <line fill="none" id="svg_25" stroke="#000000" stroke-dasharray="null" stroke-linecap="null" stroke-linejoin="null" transform="rotate(88.763 7.12463 18.9377)" x1="7.24029" x2="7.008985" y1="17.520966" y2="20.354388"/>
  <line fill="none" id="svg_26" stroke="#000000" stroke-dasharray="null" stroke-linecap="null" stroke-linejoin="null" transform="rotate(88.763 12.7904 18.3711)" x1="12.906015" x2="12.674711" y1="16.954394" y2="19.787816"/>
  <line fill="none" id="svg_27" stroke="#000000" stroke-dasharray="null" stroke-linecap="null" stroke-linejoin="null" transform="rotate(88.763 12.2238 23.3286)" x1="12.339441" x2="12.108137" y1="21.911901" y2="24.745323"/>
 </g>
</svg>